<?xml version="1.0" standalone="no"?>
<!DOCTYPE svg PUBLIC "-//W3C//DTD SVG 20010904//EN"
 "http://www.w3.org/TR/2001/REC-SVG-20010904/DTD/svg10.dtd">
<svg version="1.0" xmlns="http://www.w3.org/2000/svg"
 width="1200.000000pt" height="1200.000000pt" viewBox="0 0 1200.000000 1200.000000"
 preserveAspectRatio="xMidYMid meet">
<metadata>
Created by potrace 1.11, written by Peter Selinger 2001-2013
</metadata>
<g transform="translate(0.000000,1200.000000) scale(0.100000,-0.100000)"
fill="#000000" stroke="none">
<path d="M5737 11774 c-1 -1 -56 -4 -122 -8 -120 -6 -146 -8 -286 -27 -78 -10
-87 -11 -179 -30 -166 -33 -422 -109 -540 -161 -213 -93 -315 -148 -490 -264
-108 -71 -264 -190 -319 -243 -106 -101 -119 -110 -162 -115 -65 -8 -118 -16
-179 -27 -72 -14 -319 -77 -345 -88 -11 -5 -54 -22 -95 -36 -392 -142 -828
-428 -1170 -768 -241 -238 -400 -433 -543 -662 -180 -291 -335 -679 -383 -965
-3 -14 -9 -50 -15 -80 -18 -100 -32 -235 -43 -417 -3 -50 -9 -67 -30 -90 -40
-42 -159 -220 -221 -328 -58 -103 -155 -308 -155 -328 0 -7 -4 -17 -9 -22 -13
-14 -85 -235 -115 -352 -45 -182 -82 -391 -91 -528 -2 -22 -7 -76 -10 -120 -9
-99 -9 -456 -1 -550 16 -169 35 -309 58 -420 109 -533 334 -975 712 -1400 55
-61 60 -72 68 -128 16 -127 23 -165 48 -272 70 -303 201 -602 398 -910 39 -60
206 -290 222 -305 3 -3 34 -39 70 -80 289 -334 564 -573 885 -770 65 -40 317
-170 329 -170 3 0 29 -11 58 -24 108 -49 404 -136 543 -161 22 -4 51 -9 65
-11 14 -3 32 -7 40 -9 8 -2 41 -7 73 -10 32 -4 67 -8 79 -10 12 -3 60 -7 107
-10 47 -4 107 -8 132 -9 37 -3 60 -14 120 -58 247 -182 500 -311 819 -418 91
-30 291 -82 362 -94 18 -3 44 -8 58 -11 69 -14 271 -40 410 -51 140 -12 568
-4 670 11 14 2 61 9 106 15 44 6 89 12 100 14 10 3 55 12 99 21 95 19 262 62
290 74 11 4 38 14 60 21 336 106 759 359 1040 622 63 58 66 60 190 73 33 4 63
9 66 11 4 2 24 6 45 10 66 9 234 53 329 85 471 160 907 441 1309 845 418 420
673 836 815 1329 45 158 79 314 97 450 3 28 8 59 10 70 2 10 6 62 9 115 10
159 12 168 43 207 172 220 328 518 430 819 58 172 118 422 137 569 3 28 8 64
11 80 31 208 35 662 9 870 -2 17 -6 50 -10 75 -3 25 -8 63 -10 85 -3 22 -17
96 -31 165 -104 501 -338 960 -691 1358 -46 51 -83 101 -84 110 0 9 -2 26 -4
37 -3 11 -6 36 -9 55 -44 358 -219 809 -449 1155 -42 63 -158 223 -192 264
-104 127 -206 240 -336 370 -354 355 -759 612 -1194 756 -262 87 -608 151
-840 156 l-70 2 -102 76 c-57 42 -115 83 -130 91 -16 9 -46 27 -68 40 -67 41
-78 47 -140 81 -97 51 -290 133 -423 178 -110 37 -358 102 -437 115 -16 2 -50
8 -75 12 -25 4 -49 8 -55 9 -5 0 -41 5 -80 9 -110 14 -124 15 -225 21 -89 6
-359 13 -363 9z m343 -597 c14 -3 43 -8 65 -11 309 -39 674 -208 925 -428 449
-393 714 -955 787 -1668 16 -151 8 -732 -11 -850 -3 -14 -7 -50 -10 -80 -13
-112 -32 -218 -68 -370 -35 -150 -117 -381 -183 -515 -210 -428 -518 -720
-939 -889 -49 -20 -94 -36 -101 -36 -7 0 8 32 35 73 111 167 231 406 300 597
30 82 94 316 105 382 3 18 8 40 10 48 2 8 7 38 10 65 3 28 7 61 10 75 8 40 18
207 18 300 0 87 -12 300 -18 310 -1 3 -6 29 -9 59 -4 29 -8 56 -10 60 -2 3 -7
24 -10 46 -19 122 -87 338 -159 505 -333 773 -985 1457 -1743 1826 -83 41
-158 74 -166 74 -8 0 -18 4 -23 9 -15 14 -268 96 -360 117 -44 9 -84 21 -88
24 -4 4 20 19 55 35 35 15 81 36 103 46 90 41 354 120 447 134 24 4 45 8 48
10 3 2 24 6 46 9 22 4 51 8 64 11 13 2 44 7 69 10 25 3 62 7 81 10 19 2 78 7
130 11 52 3 97 8 99 9 5 6 463 -3 491 -8z m2336 -627 c32 -11 68 -24 79 -29
11 -5 38 -17 60 -26 147 -65 297 -146 417 -226 70 -47 200 -140 208 -149 3 -4
14 -13 26 -21 20 -14 90 -72 184 -154 102 -88 279 -276 346 -365 193 -260 307
-537 359 -875 10 -65 14 -396 5 -450 -4 -27 -10 -72 -13 -100 -3 -27 -11 -72
-17 -100 -7 -27 -14 -63 -17 -78 -2 -16 -20 -79 -38 -140 -111 -369 -299 -707
-571 -1028 -42 -50 -349 -356 -420 -420 -386 -345 -844 -601 -1224 -685 -19
-4 -39 -9 -45 -10 -255 -58 -557 -51 -805 18 -124 34 -340 122 -340 138 0 4
28 13 63 19 161 32 413 112 582 187 107 47 150 68 276 138 76 42 250 164 344
241 443 364 735 835 879 1417 35 139 40 165 52 238 3 19 7 46 10 60 2 14 6 45
9 70 3 25 8 54 10 65 13 63 20 232 20 470 0 277 -4 353 -31 535 -23 155 -26
174 -29 180 -2 3 -6 25 -10 48 -11 79 -85 330 -134 459 -79 208 -181 413 -268
536 -31 44 -38 57 -30 57 2 0 30 -9 63 -20z m-4621 -455 c401 -62 744 -193
1080 -414 49 -32 178 -123 185 -131 3 -3 39 -32 80 -64 41 -33 152 -136 246
-230 171 -171 227 -234 359 -396 20 -25 43 -54 52 -64 27 -33 159 -228 203
-301 41 -67 140 -260 173 -335 37 -87 101 -276 112 -331 3 -13 8 -35 11 -49 3
-14 7 -41 10 -60 3 -19 7 -42 10 -50 12 -35 19 -145 19 -290 -1 -188 -8 -250
-50 -417 -23 -91 -83 -251 -123 -328 l-20 -39 -27 119 c-91 400 -238 732 -456
1037 -315 438 -759 762 -1289 938 -193 64 -463 124 -660 145 -30 3 -89 10
-130 15 -81 9 -636 5 -710 -5 -25 -3 -97 -13 -160 -21 -340 -45 -671 -145
-965 -291 -103 -52 -274 -150 -293 -170 -30 -29 -30 -9 -2 67 136 370 351 698
690 1052 226 237 445 391 702 494 133 53 284 95 394 110 27 4 72 10 99 14 57
8 399 4 460 -5z m-115 -2238 c19 -3 62 -7 95 -11 69 -8 141 -17 170 -22 11 -2
36 -7 55 -10 340 -57 637 -159 880 -302 320 -187 558 -443 703 -757 30 -66 87
-211 87 -223 0 -2 -19 10 -43 25 -51 34 -58 38 -167 103 -287 171 -671 307
-975 346 -22 3 -51 7 -65 10 -14 2 -72 7 -130 11 -265 17 -477 -1 -730 -63
-120 -30 -340 -101 -354 -115 -6 -5 -16 -9 -24 -9 -22 0 -268 -118 -352 -169
-19 -11 -42 -24 -50 -27 -48 -21 -345 -228 -460 -320 -149 -119 -415 -379
-532 -519 -303 -362 -507 -732 -631 -1145 -33 -109 -53 -196 -49 -212 1 -5 -2
-8 -6 -8 -18 0 -133 281 -168 407 -45 165 -85 371 -100 518 -14 148 -19 245
-19 425 0 176 9 353 20 370 2 3 6 23 9 45 15 96 70 291 87 310 5 5 9 16 9 25
0 8 27 68 59 133 240 475 640 818 1191 1021 223 81 489 140 735 162 39 3 72 8
74 10 5 5 636 -3 681 -9z m7258 -365 c70 -155 149 -389 167 -495 3 -18 8 -39
10 -47 2 -8 7 -31 10 -50 3 -19 8 -42 10 -50 4 -14 7 -37 21 -145 3 -27 8 -57
9 -65 18 -93 26 -566 13 -695 -37 -350 -176 -688 -398 -967 -37 -46 -222 -234
-280 -283 -107 -92 -301 -216 -430 -275 -36 -17 -76 -37 -90 -44 -79 -43 -439
-160 -550 -180 -14 -2 -63 -11 -110 -19 -193 -35 -292 -42 -620 -42 -162 0
-331 4 -375 8 -114 11 -166 17 -195 22 -14 3 -47 7 -75 11 -27 3 -70 10 -95
16 -25 5 -58 12 -75 15 -63 9 -264 63 -360 96 -413 141 -738 372 -960 683 -91
127 -204 352 -231 459 l-7 30 34 -26 c110 -84 461 -271 579 -309 14 -5 64 -22
112 -39 78 -28 193 -61 258 -75 227 -50 368 -64 605 -61 110 2 209 5 220 8 11
2 43 8 70 11 133 19 438 96 460 117 5 5 15 9 23 9 15 0 121 40 197 75 28 13
77 35 110 50 176 81 434 243 628 395 156 121 184 147 367 330 397 397 682 853
838 1340 33 102 63 213 65 242 2 32 13 20 45 -50z m-5998 -1186 c63 -13 144
-34 179 -45 75 -25 228 -89 255 -107 18 -12 17 -13 -10 -19 -401 -86 -709
-209 -1002 -397 -115 -75 -92 -57 -227 -167 -508 -411 -828 -982 -945 -1690
-19 -113 -22 -138 -40 -306 -8 -80 -5 -643 4 -700 3 -16 8 -55 11 -85 3 -30 8
-66 10 -80 2 -14 7 -45 10 -70 3 -25 13 -79 21 -120 9 -41 18 -86 20 -100 12
-66 81 -297 120 -402 71 -191 227 -496 292 -570 20 -24 18 -23 -90 16 -294
107 -622 309 -908 561 -78 69 -291 285 -340 345 -215 263 -356 597 -397 940
-10 80 -10 364 -1 445 33 292 113 553 255 835 117 235 308 509 473 681 8 9 36
38 61 65 357 379 785 690 1160 844 132 54 270 99 354 115 31 5 182 31 225 38
14 2 108 3 210 1 153 -2 205 -7 300 -28z m517 -658 c-50 -71 -149 -239 -202
-343 -153 -298 -243 -598 -282 -935 -15 -130 -7 -537 12 -592 2 -7 7 -30 10
-51 10 -73 37 -182 72 -297 169 -552 498 -1060 977 -1508 108 -100 304 -258
406 -327 25 -16 47 -33 48 -37 2 -5 8 -8 14 -8 5 0 28 -13 51 -29 23 -16 58
-38 77 -49 19 -11 64 -36 100 -57 209 -119 485 -230 711 -286 52 -12 98 -26
102 -29 4 -4 -20 -19 -55 -35 -35 -15 -81 -36 -103 -46 -98 -44 -393 -131
-484 -143 -14 -2 -57 -9 -96 -16 -68 -11 -88 -14 -170 -24 -221 -28 -671 -28
-805 -1 -14 3 -41 8 -60 11 -73 11 -266 67 -325 94 -11 5 -45 20 -75 33 -368
164 -700 478 -915 867 -143 259 -262 621 -301 915 -3 28 -8 59 -10 70 -4 18
-11 93 -19 200 -5 62 -6 457 -1 505 2 19 7 78 10 132 4 53 8 105 10 115 2 10
7 45 10 78 4 33 11 83 16 110 5 28 12 66 14 85 3 19 8 44 10 55 3 11 11 52 20
90 39 182 132 441 213 595 212 401 500 669 888 827 55 23 109 43 120 46 11 3
22 5 24 6 2 0 -4 -9 -12 -21z m468 -553 c14 -49 30 -99 34 -110 5 -11 23 -60
41 -110 52 -148 174 -385 276 -537 53 -79 99 -145 103 -148 3 -3 31 -36 62
-75 232 -289 573 -548 929 -705 180 -80 477 -173 650 -205 102 -18 307 -46
390 -52 121 -10 580 -10 685 0 457 42 878 159 1205 335 130 69 149 80 212 123
32 22 58 38 58 36 0 -15 -49 -148 -86 -231 -98 -221 -287 -515 -464 -720 -378
-441 -675 -643 -1105 -750 -55 -14 -125 -28 -155 -32 -30 -3 -76 -10 -102 -14
-105 -16 -355 -9 -520 15 -152 22 -413 98 -558 162 -144 64 -352 171 -358 186
-2 4 -8 7 -13 7 -16 0 -198 128 -324 228 -121 96 -424 391 -526 512 -30 35
-62 73 -72 85 -11 11 -56 70 -102 130 -228 303 -381 601 -463 900 -97 353 -89
702 23 1022 34 99 87 221 101 236 4 4 18 -39 31 -95 12 -56 34 -143 48 -193z"/>
</g>
</svg>
